<?xml version="1.0" encoding="UTF-8"?>
<svg id="Layer_4" xmlns="http://www.w3.org/2000/svg" version="1.1" xmlns:xlink="http://www.w3.org/1999/xlink" viewBox="0 0 167.84 52.46">
  <!-- Generator: Adobe Illustrator 29.7.1, SVG Export Plug-In . SVG Version: 2.1.1 Build 8)  -->
  <defs>
    <style>
      .st0, .st1 {
        fill: none;
      }

      .st2, .st3 {
        fill: #ee2424;
      }

      .st4 {
        stroke-width: 1.74px;
      }

      .st4, .st5, .st6, .st7 {
        fill: none;
      }

      .st4, .st8, .st9, .st3, .st6, .st1, .st7 {
        stroke: #070607;
        stroke-miterlimit: 10;
      }

      .st8 {
        fill: url(#radial-gradient);
      }

      .st8, .st7 {
        stroke-width: 1.34px;
      }

      .st10 {
        clip-path: url(#clippath-1);
      }

      .st9 {
        fill: #feda00;
      }

      .st9, .st3, .st1 {
        stroke-width: 1.61px;
      }

      .st6 {
        stroke-width: .94px;
      }

      .st11 {
        fill: url(#linear-gradient);
      }

      .st12 {
        clip-path: url(#clippath);
      }

      .st13 {
        fill: #070607;
      }
    </style>
    <clipPath id="clippath">
      <rect class="st5" x="91.14" y="9.37" width="53.21" height="30.22"/>
    </clipPath>
    <linearGradient id="linear-gradient" x1="99.54" y1="18.09" x2="135.74" y2="54.29" gradientUnits="userSpaceOnUse">
      <stop offset="0" stop-color="#feda00"/>
      <stop offset=".03" stop-color="#f9a909"/>
      <stop offset=".07" stop-color="#f57a12"/>
      <stop offset=".11" stop-color="#f2541a"/>
      <stop offset=".15" stop-color="#ef391f"/>
      <stop offset=".18" stop-color="#ee2922"/>
      <stop offset=".2" stop-color="#ee2424"/>
    </linearGradient>
    <radialGradient id="radial-gradient" cx="-356.13" cy="-361.8" fx="-356.13" fy="-361.8" r="35.82" gradientTransform="translate(290.2 211.5) scale(.48)" gradientUnits="userSpaceOnUse">
      <stop offset=".39" stop-color="#feda00"/>
      <stop offset=".45" stop-color="#fccb02"/>
      <stop offset=".56" stop-color="#f9a50a"/>
      <stop offset=".72" stop-color="#f46816"/>
      <stop offset=".88" stop-color="#ee2424"/>
    </radialGradient>
    <clipPath id="clippath-1">
      <polygon class="st5" points="100.68 39.59 70.04 39.59 70.04 3.17 75.55 3.17 101.94 37.93 130.58 37.93 133.33 37.93 159.73 3.17 165.25 3.17 165.25 39.59 134.59 39.59 100.68 39.59"/>
    </clipPath>
  </defs>
  <rect class="st0" x="-.75" y="-.59" width="169.37" height="53.35"/>
  <g>
    <g>
      <g class="st12">
        <g>
          <circle class="st11" cx="117.64" cy="36.19" r="25.6"/>
          <circle class="st1" cx="117.64" cy="36.19" r="19.53"/>
          <circle class="st8" cx="117.64" cy="36.19" r="17.36"/>
          <circle class="st9" cx="117.64" cy="36.19" r="9.64"/>
          <circle class="st3" cx="117.64" cy="36.19" r="6.27"/>
          <circle class="st13" cx="100.18" cy="21.07" r=".76"/>
          <circle class="st13" cx="135.09" cy="21.07" r=".76"/>
          <polygon class="st13" points="101.16 38.88 101.53 41.18 99.14 41.46 98.7 35.96 100.38 33.84 101.16 38.88"/>
          <polygon class="st13" points="127.83 21.55 129.22 19.92 123.1 17.38 121.41 19.53 127.83 21.55"/>
          <polygon class="st13" points="120.52 19.08 121.92 17.46 121.23 16.78 119.53 18.93 120.52 19.08"/>
          <polygon class="st13" points="117.68 18.99 119.07 17.36 118.38 16.69 116.68 18.84 117.68 18.99"/>
        </g>
      </g>
      <g class="st10">
        <g>
          <circle class="st4" cx="117.64" cy="36.19" r="29.89"/>
          <circle class="st7" cx="117.64" cy="36.19" r="34.71"/>
          <circle class="st6" cx="117.64" cy="36.19" r="39.53"/>
        </g>
      </g>
    </g>
    <g>
      <g>
        <path class="st2" d="M23.39,28.92h-1.85l.82,4.11h-3.08l-.83-4.11h-1.23l-2.05,4.11h-3.08l4.11-8.22-1.03-2.06h9.25l1.02,2.06-2.05,4.11ZM22.36,24.81h-3.08l-1.03,2.05h3.08l1.03-2.05Z"/>
        <path class="st2" d="M36.52,24.81c-.06.11-4.07,8.11-4.11,8.22h-7.21l-1.02-2.06,3.08-6.16-1.03-2.06h9.25l1.03,2.06ZM33.42,24.81h-3.08l-3.08,6.16h3.08l3.08-6.16Z"/>
        <path class="st2" d="M48.03,22.75l-1.03,2.06c-3.09,1.26-2.05.79-4.58,2.05l1.03-2.05h-2.05l-3.09,6.16h5.62l-1.03,2.06h-6.63l-1.03-2.05,3.08-6.17-1.02-2.06h10.74Z"/>
        <path class="st2" d="M52.72,28.39l3.31,4.64h-4.11l-1.68-2.81-1.4,2.81h-3.08l4.11-8.22-1.03-2.06h5.14l-1.55,3.09,4.63-3.09h4.11l-8.45,5.64Z"/>
        <path class="st2" d="M66.1,24.81l-1.03,2.05h6.17l-2.06,4.11-3.08,2.06h-7.71l-1.41-2.06h9.12l1.03-2.05h-6.17l2.06-4.11-1.03-2.06h11.3l-1.02,2.06h-6.17Z"/>
      </g>
      <g>
        <path class="st13" d="M12.52,12.78l-1.03,2.05h6.17l-2.06,4.11-3.08,2.06h-7.19l1.02-2.06h6.17l1.03-2.05h-6.17l2.06-4.11-1.03-2.06h11.3l-1.02,2.06h-6.17Z"/>
        <path class="st13" d="M31.83,10.72l-4.11,8.22-3.08,2.06h-7.19c.06-.11,4.05-8.11,4.11-8.22l-1.03-2.06h5.14l-4.11,8.22h3.08l4.11-8.22h3.08Z"/>
        <path class="st13" d="M43.95,10.72l-5.13,10.28h-3.09l-.87-4.41-2.21,4.41h-3.08l4.11-8.22-1.03-2.06h4.11l1.17,5.87,2.94-5.87h3.08Z"/>
        <path class="st13" d="M48.88,12.78l-1.03,2.05h6.17l-2.06,4.11-3.08,2.06h-7.19l1.02-2.06h6.17l1.03-2.05h-6.17l2.06-4.11-1.03-2.06h11.3l-1.02,2.06h-6.17Z"/>
        <path class="st13" d="M60.97,12.78l-1.03,2.05h4.11l-1.02,2.06h-4.11l-1.03,2.05h5.14l-1.03,2.06h-6.17l-1.02-2.05,3.08-6.17-1.03-2.06h10.28l-1.03,2.06h-5.14Z"/>
        <path class="st13" d="M79.03,12.78h-4.11l-4.11,8.22h-3.08l4.11-8.22h-3.09l-1.02-2.06h12.32l-1.02,2.06Z"/>
      </g>
      <g>
        <path class="st13" d="M15.24,37.44v-1.15h-2.71v-.91h3.61v4.14h-.91v-1.17h-1.8v1.17h-.91v-2.99h.91v.91h1.8Z"/>
        <path class="st13" d="M18.25,35.39l1.64,2.67v-2.67h.91v4.14h-1.06l-2.55-4.14h1.06ZM18.09,39.53h-.91v-3.64l.91,1.47v2.17Z"/>
        <path class="st13" d="M24.57,37.44v-1.15h-2.71v-.91h3.61v4.14h-.91v-1.17h-1.8v1.17h-.91v-2.99h.91v.91h1.8Z"/>
        <path class="st13" d="M26.56,39.52v-4.13h.91v4.13h-.91ZM29.26,37v-1.61h.91v4.14h-.91v-1.61h-1.56v-.91h1.56Z"/>
        <path class="st13" d="M31.24,35.39h3.61v.91h-3.61v-.91ZM34.85,38.62v.91h-3.61v-2.99h.91v.46h1.53v.91h-1.53v.71h2.71Z"/>
        <path class="st13" d="M36.51,35.39v4.14h-.91v-4.14h.91Z"/>
        <path class="st13" d="M38.62,35.39l.74,1.2.74-1.2h1.06v4.14h-.91v-2.67l-.9,1.47-1.81-2.94h1.06ZM38.46,39.53h-.91v-3.64l.91,1.47v2.17Z"/>
      </g>
      <g>
        <path class="st13" d="M51.33,35.39h3.4v.9h-3.4v-.9ZM51.33,37h2.49v-.44h.91v1.35h-2.49v.71h2.49v.91h-3.4v-2.53Z"/>
        <path class="st13" d="M57.93,38.62v-2.33h-2.49v-.9h3.4v4.15h-3.4v-2.97h.91v2.06h1.58Z"/>
        <path class="st13" d="M59.57,35.39h3.4v.9h-3.4v-.9ZM59.57,37h2.49v-.44h.91v1.35h-2.49v.71h2.49v.91h-3.4v-2.53Z"/>
        <path class="st13" d="M63.67,36.29v-.9h3.4v.9h-3.4ZM66.16,37.91h-2.49v-1.35h.91v.44h2.49v2.53h-3.4v-.91h2.49v-.71Z"/>
      </g>
      <polygon class="st2" points="48.44 33.85 45.34 33.85 42.83 38.84 45.41 36.94 42.82 42.83 50.04 35.08 47.02 36.72 48.44 33.85"/>
      <g>
        <path class="st2" d="M74.1,22.97l-.12-.22h1.05s-.11.22-.11.22h-.3l-.51,1.08h-.22l.51-1.08h-.31,0Z"/>
        <path class="st2" d="M75.46,22.75v.41s.37-.41.37-.41h.22l-.62,1.3h-.22l.37-.78-.19.19h-.19s0-.17,0-.17l-.36.76h-.22l.62-1.3h.22Z"/>
      </g>
    </g>
  </g>
</svg>